<svg xmlns="http://www.w3.org/2000/svg" viewBox="0 0 391.91 207.09"><defs><style>.cls-1{fill:none;stroke:#9599a1;stroke-width:0.45px;}.cls-2{fill:#68bdf6;}.cls-3{fill:#fb95af;}.cls-4{fill:#de9bf9;}.cls-5{fill:#6dcc9c;}.cls-6{fill:#9599a1;}.cls-7{fill:#a5abb6;stroke:#9aa1ac;stroke-width:0.5px;}</style></defs><title>Asset 1</title><g id="Layer_2" data-name="Layer 2"><g id="Page"><path class="cls-1" d="M74.24,17.74a75,75,0,0,1,13.4,39.5"/><path class="cls-1" d="M86.34,57.71A75.78,75.78,0,0,1,71.18,18.83"/><path class="cls-1" d="M88.8,57.43a67.34,67.34,0,0,1,22.77-31"/><path class="cls-1" d="M90.28,60.34c3.25.32,28.36,5.22,46.69,23.8"/><path class="cls-1" d="M89.43,61.74c1.59.59,20.83,26.27,23,50.85"/><path class="cls-1" d="M88.42,62.06c-.18,1.37,2.95,30.33,21.09,51.85"/><path class="cls-1" d="M89.58,61.44c2.05,2.53,20.24,20,45.89,25.51"/><path class="cls-1" d="M90,58.24A67.34,67.34,0,0,0,114.17,28.4"/><path class="cls-1" d="M87.61,62.24s-.56,30.15-21.2,57.61"/><path class="cls-1" d="M86.42,61.74s-20.18,23-23,57.24"/><path class="cls-1" d="M85.36,59.45S64.18,55.36,41,66.54"/><path class="cls-1" d="M85.68,60.92s-18.5,10.78-44,8.7"/><line class="cls-1" x1="5.48" y1="69.5" x2="29.25" y2="69.31"/><line class="cls-1" x1="4.71" y1="71.46" x2="58.17" y2="120.67"/><line class="cls-1" x1="4.27" y1="71.77" x2="70.91" y2="163.51"/><line class="cls-1" x1="24.44" y1="162.32" x2="68.35" y2="167.7"/><line class="cls-1" x1="61.47" y1="185.22" x2="70.72" y2="173.58"/><line class="cls-1" x1="74.73" y1="194.48" x2="74.48" y2="174.71"/><line class="cls-1" x1="87.24" y1="195.1" x2="77.1" y2="174.08"/><line class="cls-1" x1="99.75" y1="192.72" x2="78.98" y2="172.71"/><line class="cls-1" x1="94.31" y1="179.21" x2="79.86" y2="171.46"/><line class="cls-1" x1="108.94" y1="180.15" x2="80.29" y2="170.52"/><line class="cls-1" x1="106.25" y1="167.39" x2="80.67" y2="168.27"/><line class="cls-1" x1="90.43" y1="148.69" x2="78.36" y2="163.76"/><line class="cls-1" x1="75.92" y1="146.69" x2="74.92" y2="162.32"/><line class="cls-1" x1="173.31" y1="107.03" x2="79.86" y2="165.2"/><line class="cls-1" x1="100.54" y1="156.36" x2="80.15" y2="165.87"/><path class="cls-1" d="M80.36,167S129.9,152,185.53,169.12"/><path class="cls-1" d="M80.48,170.27s49,16,105.07.09"/><line class="cls-1" x1="173.06" y1="101.46" x2="147.41" y2="90.77"/><line class="cls-1" x1="156.54" y1="60.62" x2="175.94" y2="98.33"/><line class="cls-1" x1="160.74" y1="56.74" x2="194.58" y2="76.5"/><line class="cls-1" x1="162.05" y1="52.3" x2="204.02" y2="54.86"/><line class="cls-1" x1="161.67" y1="48.98" x2="215.03" y2="33.78"/><line class="cls-1" x1="159.48" y1="45.04" x2="187.82" y2="19.96"/><line class="cls-1" x1="155.04" y1="42.23" x2="163.43" y2="15.64"/><line class="cls-1" x1="215.22" y1="58.86" x2="236.3" y2="74.88"/><line class="cls-1" x1="206.27" y1="79.51" x2="235.11" y2="78.69"/><line class="cls-1" x1="203.96" y1="84.45" x2="236.8" y2="123.92"/><line class="cls-1" x1="289.84" y1="95.96" x2="247.93" y2="98.21"/><line class="cls-1" x1="290.78" y1="98.77" x2="246.06" y2="125.48"/><line class="cls-1" x1="313.24" y1="114.91" x2="246.81" y2="127.55"/><line class="cls-1" x1="332" y1="137.68" x2="246.93" y2="129.3"/><line class="cls-1" x1="299.29" y1="155.76" x2="246.37" y2="131.3"/><line class="cls-1" x1="259.5" y1="167.39" x2="243.43" y2="134.24"/><path class="cls-1" d="M237.17,133.56S221.85,156.95,190.28,169"/><path class="cls-1" d="M234.86,131.23s-26,9.2-45.33,36.55"/><line class="cls-1" x1="342.41" y1="133.84" x2="364.17" y2="111.66"/><line class="cls-1" x1="302.21" y1="96.56" x2="362.34" y2="106.24"/><line class="cls-1" x1="298.2" y1="55.95" x2="296.45" y2="89.47"/><line class="cls-1" x1="302.04" y1="55.28" x2="307.71" y2="70.62"/><line class="cls-1" x1="307.46" y1="50.94" x2="321.56" y2="59.11"/><line class="cls-1" x1="308.46" y1="48.19" x2="377.6" y2="64.79"/><line class="cls-1" x1="308.63" y1="45.52" x2="379.44" y2="42.6"/><line class="cls-1" x1="308.29" y1="43.52" x2="369.43" y2="28.09"/><line class="cls-1" x1="307.29" y1="40.93" x2="340.15" y2="21.25"/><line class="cls-1" x1="303.79" y1="37.35" x2="319.22" y2="11.58"/><line class="cls-1" x1="290.53" y1="40.1" x2="280.19" y2="32.51"/><line class="cls-1" x1="291.11" y1="52.53" x2="285.53" y2="57.36"/><circle class="cls-2" cx="106.19" cy="153.75" r="6.26"/><circle class="cls-2" cx="99.94" cy="182.24" r="6.26"/><circle class="cls-3" cx="298.79" cy="45.98" r="10.01"/><circle class="cls-2" cx="114.95" cy="182.18" r="6.26"/><circle class="cls-4" cx="87.89" cy="59.78" r="2.63"/><circle class="cls-3" cx="152.1" cy="51.77" r="10.01"/><circle class="cls-2" cx="112.56" cy="167.34" r="6.26"/><circle class="cls-4" cx="187.98" cy="169.73" r="2.57"/><circle class="cls-5" cx="240.66" cy="128.82" r="6.36"/><circle class="cls-5" cx="62.72" cy="125.01" r="6.26"/><circle class="cls-6" cx="2.77" cy="69.63" r="2.77"/><circle class="cls-5" cx="35.45" cy="69.14" r="6.26"/><circle class="cls-5" cx="116.55" cy="22.67" r="6.26"/><circle class="cls-5" cx="113.39" cy="118.78" r="6.26"/><circle class="cls-5" cx="70.63" cy="12.62" r="6.26"/><circle class="cls-5" cx="141.63" cy="88.37" r="6.26"/><circle class="cls-2" cx="210.22" cy="55.22" r="6.26"/><circle class="cls-2" cx="192.45" cy="15.88" r="6.26"/><circle class="cls-2" cx="178.8" cy="103.92" r="6.26"/><circle class="cls-2" cx="165.28" cy="9.78" r="6.26"/><circle class="cls-2" cx="200.01" cy="79.71" r="6.26"/><circle class="cls-2" cx="221.07" cy="32.08" r="6.26"/><circle class="cls-5" cx="241.35" cy="78.55" r="6.26"/><circle class="cls-7" cx="260.74" cy="169.91" r="2.5"/><circle class="cls-2" cx="304.96" cy="158.42" r="6.26"/><circle class="cls-2" cx="296.17" cy="95.67" r="6.26"/><circle class="cls-2" cx="338.18" cy="138.38" r="6.26"/><circle class="cls-2" cx="319.35" cy="113.77" r="6.26"/><circle class="cls-5" cx="241.75" cy="98.57" r="6.26"/><circle class="cls-5" cx="368.5" cy="107.32" r="6.26"/><circle class="cls-2" cx="326.94" cy="62.38" r="6.26"/><circle class="cls-2" cx="275.11" cy="28.94" r="6.26"/><circle class="cls-2" cx="385.65" cy="42.41" r="6.26"/><circle class="cls-2" cx="280.9" cy="61.49" r="6.26"/><circle class="cls-2" cx="322.38" cy="6.26" r="6.26"/><circle class="cls-2" cx="309.8" cy="76.53" r="6.26"/><circle class="cls-2" cx="375.46" cy="26.67" r="6.26"/><circle class="cls-2" cx="345.53" cy="18.06" r="6.26"/><circle class="cls-2" cx="383.63" cy="66.4" r="6.26"/><circle class="cls-2" cx="76.3" cy="140.5" r="6.26"/><circle class="cls-2" cx="104.44" cy="197.09" r="6.26"/><circle class="cls-2" cx="57.82" cy="190.29" r="6.26"/><circle class="cls-2" cx="94.46" cy="143.91" r="6.26"/><circle class="cls-2" cx="89.9" cy="200.83" r="6.26"/><circle class="cls-2" cx="74.89" cy="200.84" r="6.26"/><circle class="cls-5" cx="74.47" cy="168.54" r="6.26"/><circle class="cls-2" cx="18.41" cy="161.55" r="6.26"/></g></g></svg>