<?xml version="1.0" encoding="UTF-8" standalone="no"?>
<svg xmlns:svg="http://www.w3.org/2000/svg" xmlns="http://www.w3.org/2000/svg"
version="1.0" width="800" height="800" id="graph">
<g style="stroke:#404040;stroke-width:2;stroke-linejoin:round;fill:none">
<line x1="314.45" y1=" 85.48" x2="322.89" y2="125.04"/>
<line x1="314.45" y1=" 85.48" x2="346.53" y2=" 59.58"/>
<line x1="320.13" y1="174.42" x2="322.89" y2="125.04"/>
<line x1="320.13" y1="174.42" x2="344.59" y2="208.45"/>
<line x1="384.77" y1="203.47" x2="344.59" y2="208.45"/>
<line x1="384.77" y1="203.47" x2="385.76" y2="152.50"/>
<line x1="430.41" y1="142.15" x2="385.76" y2="152.50"/>
<line x1="430.41" y1="142.15" x2="449.47" y2=" 97.69"/>
<line x1="385.76" y1="152.50" x2="372.43" y2="105.46"/>
<line x1="449.47" y1=" 97.69" x2="447.36" y2=" 48.37"/>
<line x1="402.30" y1=" 65.02" x2="447.36" y2=" 48.37"/>
<line x1="494.36" y1=" 60.27" x2="447.36" y2=" 48.37"/>
<line x1="547.07" y1=" 70.39" x2="494.36" y2=" 60.27"/>
<line x1="292.56" y1="232.45" x2="344.59" y2="208.45"/>
<line x1="304.60" y1="270.72" x2="292.56" y2="232.45"/>
<line x1="252.69" y1="251.77" x2="292.56" y2="232.45"/>
<line x1="252.69" y1="251.77" x2="211.75" y2="237.13"/>
<line x1="232.77" y1="201.08" x2="211.75" y2="237.13"/>
<line x1="252.69" y1="251.77" x2="261.92" y2="298.09"/>
<line x1="261.92" y1="298.09" x2="219.69" y2="298.49"/>
<line x1="304.60" y1="270.72" x2="327.97" y2="311.90"/>
<line x1="367.44" y1="323.43" x2="327.97" y2="311.90"/>
<line x1="407.97" y1="324.49" x2="367.44" y2="323.43"/>
<line x1="359.14" y1="275.42" x2="327.97" y2="311.90"/>
<line x1="252.39" y1="155.43" x2="232.77" y2="201.08"/>
<line x1="252.39" y1="155.43" x2="254.03" y2="109.43"/>
<line x1="245.84" y1=" 66.05" x2="254.03" y2="109.43"/>
<line x1="211.75" y1="237.13" x2="161.79" y2="256.33"/>
<line x1="132.32" y1="217.40" x2="161.79" y2="256.33"/>
<line x1="234.42" y1="352.99" x2="219.69" y2="298.49"/>
<line x1="281.55" y1="377.15" x2="234.42" y2="352.99"/>
<line x1="281.55" y1="377.15" x2="337.22" y2="375.25"/>
<line x1="337.22" y1="375.25" x2="334.57" y2="424.93"/>
<line x1="334.57" y1="424.93" x2="375.98" y2="422.28"/>
<line x1="334.57" y1="424.93" x2="298.79" y2="452.17"/>
<line x1="255.77" y1="449.61" x2="298.79" y2="452.17"/>
<line x1="405.55" y1="461.70" x2="375.98" y2="422.28"/>
<line x1="405.55" y1="461.70" x2="369.26" y2="496.74"/>
<line x1="369.26" y1="496.74" x2="322.25" y2="498.81"/>
<line x1="282.50" y1="519.19" x2="322.25" y2="498.81"/>
<line x1="282.50" y1="519.19" x2="296.84" y2="567.18"/>
<line x1="336.19" y1="558.97" x2="296.84" y2="567.18"/>
<line x1="451.75" y1="439.92" x2="405.55" y2="461.70"/>
<line x1="319.55" y1="614.69" x2="296.84" y2="567.18"/>
<line x1="319.55" y1="614.69" x2="359.55" y2="636.46"/>
<line x1="380.07" y1="591.98" x2="359.55" y2="636.46"/>
<line x1="422.46" y1="584.16" x2="380.07" y2="591.98"/>
<line x1="447.21" y1="546.38" x2="422.46" y2="584.16"/>
<line x1="471.01" y1="505.57" x2="447.21" y2="546.38"/>
<line x1="471.01" y1="505.57" x2="505.73" y2="474.21"/>
<line x1="505.73" y1="474.21" x2="506.86" y2="433.43"/>
<line x1="505.73" y1="474.21" x2="548.11" y2="461.93"/>
<line x1="548.11" y1="461.93" x2="591.40" y2="443.09"/>
<line x1="593.75" y1="394.32" x2="591.40" y2="443.09"/>
<line x1="428.92" y1="633.81" x2="422.46" y2="584.16"/>
<line x1="611.80" y1="489.30" x2="591.40" y2="443.09"/>
<line x1="505.73" y1="474.21" x2="527.35" y2="520.19"/>
<line x1="328.25" y1="677.54" x2="359.55" y2="636.46"/>
<line x1="472.34" y1="662.65" x2="428.92" y2="633.81"/>
<line x1="453.50" y1="700.60" x2="472.34" y2="662.65"/>
<line x1="472.34" y1="662.65" x2="510.40" y2="640.38"/>
<line x1="524.23" y1="681.54" x2="510.40" y2="640.38"/>
<line x1="524.23" y1="681.54" x2="559.42" y2="658.77"/>
<line x1="553.46" y1="715.98" x2="524.23" y2="681.54"/>
<line x1="453.50" y1="700.60" x2="480.55" y2="737.40"/>
<line x1="546.66" y1="607.59" x2="510.40" y2="640.38"/>
<line x1="480.55" y1="737.40" x2="433.49" y2="758.37"/>
<line x1="433.49" y1="758.37" x2="392.80" y2="752.74"/>
<line x1="611.36" y1="655.42" x2="559.42" y2="658.77"/>
<line x1="475.69" y1="598.32" x2="510.40" y2="640.38"/>
<line x1="273.14" y1="687.43" x2="328.25" y2="677.54"/>
<line x1="232.77" y1="201.08" x2="184.82" y2="170.45"/>
<line x1="181.92" y1="122.73" x2="184.82" y2="170.45"/>
<line x1="319.55" y1="614.69" x2="262.78" y2="623.07"/>
<line x1="262.78" y1="623.07" x2="224.83" y2="605.92"/>
<line x1="183.79" y1="613.92" x2="224.83" y2="605.92"/>
<line x1="207.11" y1="561.10" x2="224.83" y2="605.92"/>
<line x1="208.23" y1="657.52" x2="183.79" y2="613.92"/>
<line x1="154.00" y1="553.36" x2="207.11" y2="561.10"/>
<line x1="154.00" y1="553.36" x2="160.28" y2="510.05"/>
<line x1="183.79" y1="613.92" x2="131.16" y2="631.45"/>
<line x1="273.14" y1="687.43" x2="225.60" y2="719.97"/>
<line x1="451.75" y1="439.92" x2="431.08" y2="385.69"/>
<line x1="430.41" y1="142.15" x2="486.69" y2="156.93"/>
<line x1="486.69" y1="156.93" x2="477.34" y2="199.98"/>
<line x1="469.55" y1="248.81" x2="477.34" y2="199.98"/>
<line x1="469.55" y1="248.81" x2="516.83" y2="252.30"/>
<line x1="566.06" y1="246.49" x2="516.83" y2="252.30"/>
<line x1="422.19" y1="265.80" x2="469.55" y2="248.81"/>
<line x1="385.49" y1="689.12" x2="328.25" y2="677.54"/>
<line x1="519.89" y1="312.24" x2="516.83" y2="252.30"/>
<line x1="519.89" y1="312.24" x2="541.12" y2="351.60"/>
<line x1="541.12" y1="351.60" x2="499.22" y2="373.50"/>
<line x1="328.25" y1="677.54" x2="312.88" y2="735.86"/>
<line x1="105.17" y1="483.29" x2="160.28" y2="510.05"/>
<line x1=" 62.26" y1="443.00" x2="105.17" y2="483.29"/>
<line x1=" 62.26" y1="443.00" x2=" 44.58" y2="483.60"/>
<line x1=" 92.47" y1="396.06" x2=" 62.26" y2="443.00"/>
<line x1=" 92.47" y1="396.06" x2="143.63" y2="417.79"/>
<line x1="179.00" y1="393.82" x2="143.63" y2="417.79"/>
<line x1="540.39" y1="187.43" x2="486.69" y2="156.93"/>
<line x1="540.39" y1="187.43" x2="561.86" y2="133.96"/>
<line x1="599.51" y1="156.08" x2="561.86" y2="133.96"/>
<line x1="599.51" y1="156.08" x2="635.01" y2="122.00"/>
<line x1="112.81" y1="336.65" x2=" 92.47" y2="396.06"/>
<line x1="112.81" y1="336.65" x2="157.15" y2="321.08"/>
<line x1="112.81" y1="336.65" x2=" 67.66" y2="319.99"/>
<line x1=" 95.94" y1="291.19" x2=" 67.66" y2="319.99"/>
<line x1="584.10" y1="550.36" x2="527.35" y2="520.19"/>
<line x1="593.75" y1="394.32" x2="658.39" y2="390.49"/>
<line x1="659.66" y1="443.52" x2="658.39" y2="390.49"/>
<line x1="676.15" y1="482.09" x2="659.66" y2="443.52"/>
<line x1="676.15" y1="482.09" x2="705.77" y2="531.75"/>
<line x1="705.77" y1="531.75" x2="669.04" y2="550.35"/>
<line x1="639.71" y1="593.85" x2="669.04" y2="550.35"/>
<line x1="659.66" y1="443.52" x2="719.86" y2="427.87"/>
<line x1="744.73" y1="468.30" x2="719.86" y2="427.87"/>
<line x1="751.97" y1="379.71" x2="719.86" y2="427.87"/>
<line x1="751.97" y1="379.71" x2="758.91" y2="329.67"/>
<line x1="746.04" y1="290.44" x2="758.91" y2="329.67"/>
<line x1="689.48" y1="313.58" x2="746.04" y2="290.44"/>
<line x1="689.48" y1="313.58" x2="655.61" y2="261.03"/>
<line x1="657.06" y1="215.61" x2="655.61" y2="261.03"/>
<line x1="701.40" y1="227.17" x2="657.06" y2="215.61"/>
<line x1="657.06" y1="215.61" x2="683.09" y2="168.47"/>
<line x1="623.62" y1="333.58" x2="658.39" y2="390.49"/>
<line x1=" 79.00" y1="559.54" x2="154.00" y2="553.36"/>
</g><g style="stroke:#000000;stroke-width:1;stroke-linejoin:round;fill:#C0C0C0">
<circle cx="314.45" cy=" 85.48" r="  8.00"/>
<circle cx="132.32" cy="217.40" r="  8.00"/>
<circle cx="471.01" cy="505.57" r="  8.00"/>
<circle cx=" 95.94" cy="291.19" r="  8.00"/>
<circle cx="422.19" cy="265.80" r="  8.00"/>
<circle cx="519.89" cy="312.24" r="  8.00"/>
<circle cx="453.50" cy="700.60" r="  8.00"/>
<circle cx="359.14" cy="275.42" r="  8.00"/>
<circle cx="281.55" cy="377.15" r="  8.00"/>
<circle cx="447.21" cy="546.38" r="  8.00"/>
<circle cx="179.00" cy="393.82" r="  8.00"/>
<circle cx="208.23" cy="657.52" r="  8.00"/>
<circle cx="320.13" cy="174.42" r="  8.00"/>
<circle cx="584.10" cy="550.36" r="  8.00"/>
<circle cx="553.46" cy="715.98" r="  8.00"/>
<circle cx="337.22" cy="375.25" r="  8.00"/>
<circle cx="385.49" cy="689.12" r="  8.00"/>
<circle cx="252.69" cy="251.77" r="  8.00"/>
<circle cx="599.51" cy="156.08" r="  8.00"/>
<circle cx="334.57" cy="424.93" r="  8.00"/>
<circle cx="689.48" cy="313.58" r="  8.00"/>
<circle cx="505.73" cy="474.21" r="  8.00"/>
<circle cx="319.55" cy="614.69" r="  8.00"/>
<circle cx="469.55" cy="248.81" r="  8.00"/>
<circle cx="181.92" cy="122.73" r="  8.00"/>
<circle cx="611.80" cy="489.30" r="  8.00"/>
<circle cx="472.34" cy="662.65" r="  8.00"/>
<circle cx="183.79" cy="613.92" r="  8.00"/>
<circle cx="245.84" cy=" 66.05" r="  8.00"/>
<circle cx="480.55" cy="737.40" r="  8.00"/>
<circle cx="112.81" cy="336.65" r="  8.00"/>
<circle cx="566.06" cy="246.49" r="  8.00"/>
<circle cx="336.19" cy="558.97" r="  8.00"/>
<circle cx="261.92" cy="298.09" r="  8.00"/>
<circle cx="475.69" cy="598.32" r="  8.00"/>
<circle cx=" 92.47" cy="396.06" r="  8.00"/>
<circle cx="407.97" cy="324.49" r="  8.00"/>
<circle cx="252.39" cy="155.43" r="  8.00"/>
<circle cx="451.75" cy="439.92" r="  8.00"/>
<circle cx="273.14" cy="687.43" r="  8.00"/>
<circle cx="232.77" cy="201.08" r="  8.00"/>
<circle cx="676.15" cy="482.09" r="  8.00"/>
<circle cx="384.77" cy="203.47" r="  8.00"/>
<circle cx="541.12" cy="351.60" r="  8.00"/>
<circle cx=" 62.26" cy="443.00" r="  8.00"/>
<circle cx="593.75" cy="394.32" r="  8.00"/>
<circle cx="635.01" cy="122.00" r="  8.00"/>
<circle cx="705.77" cy="531.75" r="  8.00"/>
<circle cx="225.60" cy="719.97" r="  8.00"/>
<circle cx="431.08" cy="385.69" r="  8.00"/>
<circle cx=" 79.00" cy="559.54" r="  8.00"/>
<circle cx=" 44.58" cy="483.60" r="  8.00"/>
<circle cx="746.04" cy="290.44" r="  8.00"/>
<circle cx="547.07" cy=" 70.39" r="  8.00"/>
<circle cx="367.44" cy="323.43" r="  8.00"/>
<circle cx="405.55" cy="461.70" r="  8.00"/>
<circle cx="540.39" cy="187.43" r="  8.00"/>
<circle cx="304.60" cy="270.72" r="  8.00"/>
<circle cx="430.41" cy="142.15" r="  8.00"/>
<circle cx="322.89" cy="125.04" r="  8.00"/>
<circle cx="184.82" cy="170.45" r="  8.00"/>
<circle cx="262.78" cy="623.07" r="  8.00"/>
<circle cx="701.40" cy="227.17" r="  8.00"/>
<circle cx="433.49" cy="758.37" r="  8.00"/>
<circle cx="546.66" cy="607.59" r="  8.00"/>
<circle cx="254.03" cy="109.43" r="  8.00"/>
<circle cx="369.26" cy="496.74" r="  8.00"/>
<circle cx="548.11" cy="461.93" r="  8.00"/>
<circle cx="105.17" cy="483.29" r="  8.00"/>
<circle cx="211.75" cy="237.13" r="  8.00"/>
<circle cx="282.50" cy="519.19" r="  8.00"/>
<circle cx="751.97" cy="379.71" r="  8.00"/>
<circle cx="524.23" cy="681.54" r="  8.00"/>
<circle cx="154.00" cy="553.36" r="  8.00"/>
<circle cx="623.62" cy="333.58" r="  8.00"/>
<circle cx="506.86" cy="433.43" r="  8.00"/>
<circle cx="611.36" cy="655.42" r="  8.00"/>
<circle cx="428.92" cy="633.81" r="  8.00"/>
<circle cx="255.77" cy="449.61" r="  8.00"/>
<circle cx="659.66" cy="443.52" r="  8.00"/>
<circle cx="561.86" cy="133.96" r="  8.00"/>
<circle cx="516.83" cy="252.30" r="  8.00"/>
<circle cx="328.25" cy="677.54" r="  8.00"/>
<circle cx="292.56" cy="232.45" r="  8.00"/>
<circle cx="658.39" cy="390.49" r="  8.00"/>
<circle cx="298.79" cy="452.17" r="  8.00"/>
<circle cx="639.71" cy="593.85" r="  8.00"/>
<circle cx="296.84" cy="567.18" r="  8.00"/>
<circle cx="327.97" cy="311.90" r="  8.00"/>
<circle cx="499.22" cy="373.50" r="  8.00"/>
<circle cx="510.40" cy="640.38" r="  8.00"/>
<circle cx="392.80" cy="752.74" r="  8.00"/>
<circle cx="657.06" cy="215.61" r="  8.00"/>
<circle cx="683.09" cy="168.47" r="  8.00"/>
<circle cx="655.61" cy="261.03" r="  8.00"/>
<circle cx="161.79" cy="256.33" r="  8.00"/>
<circle cx="591.40" cy="443.09" r="  8.00"/>
<circle cx="744.73" cy="468.30" r="  8.00"/>
<circle cx="486.69" cy="156.93" r="  8.00"/>
<circle cx="494.36" cy=" 60.27" r="  8.00"/>
<circle cx="385.76" cy="152.50" r="  8.00"/>
<circle cx="207.11" cy="561.10" r="  8.00"/>
<circle cx="143.63" cy="417.79" r="  8.00"/>
<circle cx="477.34" cy="199.98" r="  8.00"/>
<circle cx="449.47" cy=" 97.69" r="  8.00"/>
<circle cx="372.43" cy="105.46" r="  8.00"/>
<circle cx="559.42" cy="658.77" r="  8.00"/>
<circle cx="758.91" cy="329.67" r="  8.00"/>
<circle cx="402.30" cy=" 65.02" r="  8.00"/>
<circle cx="669.04" cy="550.35" r="  8.00"/>
<circle cx="234.42" cy="352.99" r="  8.00"/>
<circle cx="157.15" cy="321.08" r="  8.00"/>
<circle cx="131.16" cy="631.45" r="  8.00"/>
<circle cx="219.69" cy="298.49" r="  8.00"/>
<circle cx="312.88" cy="735.86" r="  8.00"/>
<circle cx="224.83" cy="605.92" r="  8.00"/>
<circle cx="322.25" cy="498.81" r="  8.00"/>
<circle cx="344.59" cy="208.45" r="  8.00"/>
<circle cx="375.98" cy="422.28" r="  8.00"/>
<circle cx="447.36" cy=" 48.37" r="  8.00"/>
<circle cx="422.46" cy="584.16" r="  8.00"/>
<circle cx="380.07" cy="591.98" r="  8.00"/>
<circle cx=" 67.66" cy="319.99" r="  8.00"/>
<circle cx="160.28" cy="510.05" r="  8.00"/>
<circle cx="719.86" cy="427.87" r="  8.00"/>
<circle cx="346.53" cy=" 59.58" r="  8.00"/>
<circle cx="359.55" cy="636.46" r="  8.00"/>
<circle cx="527.35" cy="520.19" r="  8.00"/>
</g></svg>